<svg width="2794" height="2794" viewBox="0 0 2794 2794" fill="none" xmlns="http://www.w3.org/2000/svg">
<rect width="2794" height="2794" fill="white"/>
<path d="M2025.04 989.132C2027.58 991.839 2029 995.465 2029 999.241V1551.92C2029 1555.7 2027.58 1559.32 2025.04 1562.03L1819.02 1781.61C1816.38 1784.42 1812.77 1786 1808.99 1786H1292.56C1288.69 1786 1285.56 1782.75 1285.56 1778.75V1564.39C1285.56 1562.5 1286.27 1560.69 1287.54 1559.33L1495.43 1337.76C1499.8 1333.1 1507.44 1336.31 1507.44 1342.82V1602.98C1507.44 1606.98 1510.57 1610.23 1514.43 1610.23H1813.02C1816.88 1610.23 1820.02 1606.98 1820.02 1602.98V999.685C1820.02 995.909 1821.44 992.283 1823.98 989.576L1917 868.001C1922.49 862.146 1931.57 862.146 1937.06 868.001L2025.04 989.132Z" fill="#132114"/>
<path d="M1500.44 868.001C1504.31 868.001 1507.44 871.247 1507.44 875.251V1058.82C1507.44 1060.71 1506.73 1062.52 1505.46 1063.88L1297.57 1285.44C1293.2 1290.11 1285.56 1286.9 1285.56 1280.39V1051.02C1285.56 1047.02 1282.43 1043.77 1278.57 1043.77H979.98C976.117 1043.77 972.985 1047.02 972.985 1051.02V1643.5C972.985 1647.28 971.564 1650.9 969.024 1653.61L880.06 1733.5C874.566 1739.36 865.993 1737.36 860.5 1731.5L767.96 1649.45C765.421 1646.75 764 1643.12 764 1639.34V1074.39C764 1070.62 765.421 1066.99 767.961 1064.28L948.003 872.392C950.637 869.584 954.255 868.001 958.033 868.001H1500.44Z" fill="#132114"/>
<path d="M2029 1777.5V1555.21C2029 1548.03 2020.27 1544.48 2015.26 1549.63L1799.2 1771.92C1794.27 1777 1797.86 1785.5 1804.93 1785.5H2021C2025.42 1785.5 2029 1781.92 2029 1777.5Z" fill="url(#paint0_linear_1723_68)"/>
<path d="M2026.73 842.87L1933.96 738.372C1930.45 734.414 1924.29 734.328 1920.67 738.188L1822.44 842.829C1820.87 844.498 1820 846.7 1820 848.989V1266C1820 1270.97 1824.03 1275 1829 1275H2020C2024.97 1275 2029 1270.97 2029 1266V848.845C2029 846.643 2028.19 844.517 2026.73 842.87Z" fill="url(#paint1_linear_1723_68)"/>
<path d="M970 1652.82L877.252 1735.78C873.906 1738.77 868.866 1738.84 865.439 1735.94L767.187 1652.83C765.166 1651.12 764 1648.6 764 1645.96V1318C764 1313.03 768.029 1309 773 1309H964C968.971 1309 973 1313.03 973 1318V1646.11C973 1648.67 971.909 1651.11 970 1652.82Z" fill="url(#paint2_linear_1723_68)"/>
<path d="M772 868H957.211C964.262 868 967.865 876.461 962.978 881.545L777.767 1074.18C772.774 1079.37 764 1075.84 764 1068.64V876C764 871.582 767.582 868 772 868Z" fill="url(#paint3_linear_1723_68)"/>
<path d="M1508 1128V1254L1285 1490.5V1365L1508 1128Z" fill="#60CFC8"/>
<defs>
<linearGradient id="paint0_linear_1723_68" x1="2161" y1="1908.5" x2="1888.5" y2="1648.5" gradientUnits="userSpaceOnUse">
<stop offset="0.103519" stop-color="#60CFC8"/>
<stop offset="0.800668" stop-color="#132114"/>
</linearGradient>
<linearGradient id="paint1_linear_1723_68" x1="1924.5" y1="731" x2="1924.5" y2="1275" gradientUnits="userSpaceOnUse">
<stop offset="0.105098" stop-color="#60CFC8"/>
<stop offset="1" stop-color="#132114"/>
</linearGradient>
<linearGradient id="paint2_linear_1723_68" x1="868.5" y1="1741" x2="868.5" y2="1309" gradientUnits="userSpaceOnUse">
<stop offset="0.146278" stop-color="#60CFC8"/>
<stop offset="1" stop-color="#132114"/>
</linearGradient>
<linearGradient id="paint3_linear_1723_68" x1="728" y1="850" x2="976.5" y2="1042.5" gradientUnits="userSpaceOnUse">
<stop stop-color="#60CFC8"/>
<stop offset="0.470321" stop-color="#132114"/>
</linearGradient>
</defs>
</svg>
